<?xml version="1.0" ?><svg data-name="Слой 1" id="Слой_1" viewBox="0 0 128 128" xmlns="http://www.w3.org/2000/svg"><title/><path fill="white" d="M104.21,52.64a2,2,0,0,0-2.8.39L96.7,59.25a33,33,0,1,0-1.31,15.11,2,2,0,0,0-3.8-1.26A29.06,29.06,0,1,1,92.8,60.31L86,55.16a2,2,0,1,0-2.42,3.18l10.36,7.85a2,2,0,0,0,1.21.41l.27,0a2,2,0,0,0,1.32-.77l7.85-10.36A2,2,0,0,0,104.21,52.64Z"/><path fill="white" d="M64,0a64,64,0,1,0,64,64A64.07,64.07,0,0,0,64,0Zm0,124a60,60,0,1,1,60-60A60.07,60.07,0,0,1,64,124Z"/></svg>