<?xml version="1.0" ?><!DOCTYPE svg  PUBLIC '-//W3C//DTD SVG 1.1//EN'  'http://www.w3.org/Graphics/SVG/1.1/DTD/svg11.dtd'><svg height="100%" style="fill-rule:evenodd;clip-rule:evenodd;stroke-linejoin:round;stroke-miterlimit:2;" version="1.1" viewBox="0 0 32 32" width="100%" xml:space="preserve" xmlns="http://www.w3.org/2000/svg" xmlns:serif="http://www.serif.com/" xmlns:xlink="http://www.w3.org/1999/xlink"><path fill="#ea6200" d="M15.999,2c-7.726,0 -14,6.273 -14,14c0,7.727 6.274,14 14,14c7.727,0 14,-6.273 14,-14c0,-7.727 -6.273,-14 -14,-14Zm6.448,14.882c0.339,-0.169 0.553,-0.515 0.553,-0.894c0,-0.379 -0.214,-0.725 -0.553,-0.895l-10,-5c-0.31,-0.155 -0.678,-0.138 -0.973,0.044c-0.295,0.182 -0.474,0.504 -0.474,0.851l0,10c0,0.346 0.179,0.668 0.474,0.85c0.295,0.183 0.663,0.199 0.973,0.044l10,-5Z"/></svg>